<?xml version="1.0" encoding="UTF-8"?> <!-- Generator: Adobe Illustrator 24.3.0, SVG Export Plug-In . SVG Version: 6.00 Build 0) --> <svg xmlns="http://www.w3.org/2000/svg" xmlns:xlink="http://www.w3.org/1999/xlink" version="1.1" id="Layer_1" x="0px" y="0px" viewBox="0 0 93.46 18.27" style="enable-background:new 0 0 93.46 18.27;" xml:space="preserve"> <style type="text/css"> .st0{fill:#FFFFFF;} </style> <g> <path class="st0" d="M75.19,18V9.14V0.27c0-0.1,0.05-0.18,0.12-0.22c0.07-0.05,0.16-0.06,0.24-0.01l8.9,4.47l8.9,4.47 c0.07,0.03,0.1,0.1,0.1,0.16c0,0.07-0.03,0.13-0.1,0.16l-8.9,4.47l-8.91,4.47c-0.08,0.04-0.17,0.03-0.24-0.01 C75.24,18.18,75.19,18.1,75.19,18z M77.7,4.04v5.1v5.1l5.07-2.55l5.07-2.55l-5.07-2.55L77.7,4.04z"></path> </g> <path class="st0" d="M0,13.59l1.33-2.22c0.87,0.82,2.58,1.62,4.03,1.62c1.33,0,1.95-0.51,1.95-1.23c0-1.91-6.9-0.34-6.9-4.92 c0-1.95,1.69-3.67,4.78-3.67c1.95,0,3.52,0.68,4.68,1.59L8.64,6.93C7.94,6.2,6.61,5.58,5.19,5.58c-1.11,0-1.83,0.48-1.83,1.13 c0,1.71,6.93,0.27,6.93,4.97c0,2.15-1.83,3.72-5.07,3.72C3.19,15.4,1.23,14.72,0,13.59z"></path> <path class="st0" d="M13.15,12.19V6.13h-1.93V3.45h1.93V0.27h3.06v3.19h2.37v2.68h-2.37v5.24c0,0.75,0.39,1.3,1.06,1.3 c0.46,0,0.89-0.17,1.06-0.36l0.65,2.34c-0.46,0.41-1.28,0.75-2.56,0.75C14.28,15.4,13.15,14.29,13.15,12.19z"></path> <path class="st0" d="M20.68,15.11V3.45h3.06v1.57c0.84-1.01,2.27-1.86,3.72-1.86v2.99c-0.22-0.05-0.48-0.07-0.84-0.07 c-1.01,0-2.36,0.58-2.87,1.33v7.7H20.68z"></path> <path class="st0" d="M28.11,9.27c0-3.38,2.51-6.11,6.03-6.11c3.5,0,5.84,2.61,5.84,6.39v0.72h-8.66c0.22,1.42,1.38,2.61,3.35,2.61 c0.99,0,2.34-0.41,3.09-1.13l1.38,2.03c-1.16,1.06-2.99,1.62-4.8,1.62C30.79,15.4,28.11,13.01,28.11,9.27z M34.14,5.67 c-1.91,0-2.73,1.33-2.85,2.49h5.74C36.94,7.05,36.17,5.67,34.14,5.67z"></path> <path class="st0" d="M48.69,15.11v-1.23c-0.8,0.97-2.17,1.52-3.69,1.52c-1.86,0-4.03-1.25-4.03-3.86c0-2.75,2.17-3.76,4.03-3.76 c1.57,0,2.92,0.51,3.69,1.42V7.72c0-1.18-1.01-1.95-2.56-1.95c-1.23,0-2.39,0.48-3.35,1.38L41.57,5c1.42-1.28,3.26-1.83,5.09-1.83 c2.68,0,5.12,1.06,5.12,4.42v7.53H48.69z M48.69,12.31v-1.45c-0.51-0.68-1.47-1.04-2.46-1.04c-1.21,0-2.2,0.65-2.2,1.76 s0.99,1.74,2.2,1.74C47.22,13.32,48.18,12.98,48.69,12.31z"></path> <path class="st0" d="M68.23,15.11V7.75c0-1.09-0.48-1.86-1.74-1.86c-1.09,0-1.98,0.72-2.41,1.35v7.87H61V7.75 c0-1.09-0.48-1.86-1.74-1.86c-1.06,0-1.95,0.72-2.41,1.35v7.87h-3.06V3.45h3.06v1.5c0.51-0.68,2.03-1.79,3.81-1.79 c1.71,0,2.82,0.8,3.23,2.1c0.68-1.04,2.22-2.1,4.01-2.1c2.15,0,3.43,1.13,3.43,3.52v8.42H68.23z"></path> </svg> 