<svg width="70" height="71" viewBox="0 0 70 71" fill="none" xmlns="http://www.w3.org/2000/svg">
<path d="M67 35.5C67 53.5041 52.6987 68 35.1783 68C17.658 68 3.35669 53.5041 3.35669 35.5C3.35669 17.4959 17.658 3 35.1783 3C52.6987 3 67 17.4959 67 35.5Z" fill="white" stroke="#17A2B8" stroke-width="6"/>
<path d="M36.0614 24.4546L50.1521 37.0241C50.8317 37.6303 50.8317 38.6131 50.1521 39.2193L48.5086 40.6853C47.8302 41.2905 46.7307 41.2916 46.0507 40.6879L34.831 30.7264L23.6113 40.6879C22.9313 41.2917 21.8318 41.2905 21.1534 40.6854L19.5099 39.2193C18.8303 38.6131 18.8303 37.6303 19.5099 37.0241L33.6006 24.4547C34.2801 23.8485 35.3819 23.8485 36.0614 24.4546Z" fill="#17A2B8"/>
</svg>
