<svg width="58" height="60" viewBox="0 0 58 60" fill="none" xmlns="http://www.w3.org/2000/svg">
<path d="M22.3061 50.6482C29.7008 48.9845 45.7392 45.1779 50.7349 43.2613C51.5903 42.837 53.1529 42.7571 52.5598 45.8317C51.8185 49.6749 25.4427 68.4418 19.9394 53.044C17.9244 52.9941 11.7273 54.177 3.05889 59.3079C-5.60947 64.4389 6.03701 39.8582 14.5343 24.5602C16.863 20.8667 23.1699 9.28496 37.1621 7.62416C46.6859 -2.63274 63.7945 -10.5687 56.0386 39.7425C55.4873 41.0818 54.0198 42.9568 52.5598 39.7425C52.5598 31.3905 52.1948 14.3673 50.7349 13.0895C50.1171 10.7353 46.7201 6.83056 38.0745 10.0449C33.6073 14.5952 24.1994 29.0863 22.3061 50.6482Z" fill="url(#paint0_linear)"/>
<path d="M54.2137 49.0011C52.0561 50.956 46.9995 55.2152 44.034 56.6127C43.4828 57.0952 42.9448 58.0751 45.2031 58.135C47.4615 58.1949 51.999 58.16 53.9855 58.135C55.5063 58.0934 58.2741 57.6159 57.1792 56.0387C56.0842 54.4615 55.9816 51.2888 56.0671 49.8995C56.0006 49.3588 55.5367 48.4222 54.2137 49.0011Z" fill="url(#paint1_linear)"/>
<defs>
<linearGradient id="paint0_linear" x1="29" y1="0" x2="29" y2="60" gradientUnits="userSpaceOnUse">
<stop stop-color="#020C0D" stop-opacity="0.95"/>
<stop offset="1" stop-color="#17A2B8" stop-opacity="0.9"/>
</linearGradient>
<linearGradient id="paint1_linear" x1="29" y1="0" x2="29" y2="60" gradientUnits="userSpaceOnUse">
<stop stop-color="#020C0D" stop-opacity="0.95"/>
<stop offset="1" stop-color="#17A2B8" stop-opacity="0.9"/>
</linearGradient>
</defs>
</svg>
