<svg width="30" height="30" viewBox="0 0 30 30" fill="none" xmlns="http://www.w3.org/2000/svg">
<g clip-path="url(#clip0)">
<path fill-rule="evenodd" clip-rule="evenodd" d="M15.2455 0C7.18483 0 0.656067 6.7125 0.656067 15C0.656067 21.6375 4.83228 27.2437 10.6316 29.2313C11.361 29.3625 11.6346 28.9125 11.6346 28.5188C11.6346 28.1625 11.6164 26.9813 11.6164 25.725C7.95077 26.4188 7.00246 24.8062 6.71067 23.9625C6.54654 23.5312 5.83531 22.2 5.21526 21.8438C4.70463 21.5625 3.97516 20.8687 5.19702 20.85C6.34594 20.8313 7.16659 21.9375 7.44014 22.3875C8.75319 24.6562 10.8504 24.0187 11.6893 23.625C11.817 22.65 12.1999 21.9937 12.6194 21.6187C9.37324 21.2437 5.9812 19.95 5.9812 14.2125C5.9812 12.5813 6.54654 11.2313 7.47662 10.1813C7.33072 9.80625 6.82009 8.26875 7.62251 6.20625C7.62251 6.20625 8.84437 5.8125 11.6346 7.74375C12.8017 7.40625 14.0418 7.2375 15.2819 7.2375C16.522 7.2375 17.7621 7.40625 18.9293 7.74375C21.7195 5.79375 22.9414 6.20625 22.9414 6.20625C23.7438 8.26875 23.2332 9.80625 23.0873 10.1813C24.0174 11.2313 24.5827 12.5625 24.5827 14.2125C24.5827 19.9688 21.1724 21.2437 17.9263 21.6187C18.4551 22.0875 18.9111 22.9875 18.9111 24.3937C18.9111 26.4 18.8928 28.0125 18.8928 28.5188C18.8928 28.9125 19.1664 29.3813 19.8958 29.2313C22.7921 28.2259 25.3087 26.3121 27.0917 23.7592C28.8746 21.2063 29.834 18.1429 29.8349 15C29.8349 6.7125 23.3061 0 15.2455 0Z" fill="#052328"/>
</g>
<defs>
<clipPath id="clip0">
<rect width="29.1788" height="30" fill="white" transform="translate(0.656067)"/>
</clipPath>
</defs>
</svg>
