<svg width="20" height="22" viewBox="0 0 20 22" fill="none" xmlns="http://www.w3.org/2000/svg">
<path fill-rule="evenodd" clip-rule="evenodd" d="M10.1905 0.104004C4.91256 0.104004 0.637695 4.91481 0.637695 10.8544C0.637695 15.6115 3.37218 19.6294 7.1694 21.0538C7.64704 21.1479 7.82615 20.8254 7.82615 20.5432C7.82615 20.2879 7.81421 19.4413 7.81421 18.5409C5.41408 19.0381 4.79315 17.8825 4.60209 17.2778C4.49463 16.9687 4.02893 16.0146 3.62294 15.7593C3.28859 15.5577 2.81095 15.0605 3.61099 15.0471C4.36328 15.0336 4.90062 15.8265 5.07973 16.149C5.93948 17.775 7.31269 17.3181 7.86198 17.0359C7.94556 16.3371 8.19632 15.8668 8.47097 15.598C6.34548 15.3293 4.12446 14.402 4.12446 10.29C4.12446 9.1209 4.49463 8.15337 5.10362 7.40084C5.00809 7.13208 4.67374 6.03016 5.19914 4.55198C5.19914 4.55198 5.99919 4.26978 7.82615 5.6539C8.59038 5.41201 9.40236 5.29107 10.2143 5.29107C11.0263 5.29107 11.8383 5.41201 12.6025 5.6539C14.4295 4.25635 15.2296 4.55198 15.2296 4.55198C15.755 6.03016 15.4206 7.13208 15.3251 7.40084C15.9341 8.15337 16.3042 9.10746 16.3042 10.29C16.3042 14.4155 14.0713 15.3293 11.9458 15.598C12.2921 15.934 12.5906 16.579 12.5906 17.5868C12.5906 19.0247 12.5787 20.1804 12.5787 20.5432C12.5787 20.8254 12.7578 21.1613 13.2354 21.0538C15.1318 20.3333 16.7796 18.9617 17.947 17.1321C19.1145 15.3024 19.7427 13.1069 19.7432 10.8544C19.7432 4.91481 15.4684 0.104004 10.1905 0.104004Z" fill="#020C12"/>
</svg>
