<svg width="41" height="40" viewBox="0 0 41 40" fill="none" xmlns="http://www.w3.org/2000/svg">
<path d="M36.2696 20.5516L21.2696 3.88492C20.6379 3.18159 19.4246 3.18159 18.7929 3.88492L3.79291 20.5516C3.35124 21.0399 3.24124 21.7433 3.50957 22.3449C3.77624 22.9466 4.37291 23.3333 5.03124 23.3333H8.36457V34.9999C8.36457 35.9199 9.10957 36.6666 10.0312 36.6666H15.0312C15.9529 36.6666 16.6979 35.9199 16.6979 34.9999V28.3333H23.3646V34.9999C23.3646 35.9199 24.1096 36.6666 25.0312 36.6666H30.0312C30.9529 36.6666 31.6979 35.9199 31.6979 34.9999V23.3333H35.0312C35.6896 23.3333 36.2862 22.9466 36.5529 22.3449C36.8212 21.7433 36.7112 21.0416 36.2696 20.5516Z" fill="white"/>
</svg>
