<svg width="31" height="30" viewBox="0 0 31 30" fill="none" xmlns="http://www.w3.org/2000/svg">
<path d="M25.6561 3.75H5.65607C4.96482 3.75 4.40607 4.31 4.40607 5V25C4.40607 25.69 4.96482 26.25 5.65607 26.25H25.6561C26.3473 26.25 26.9061 25.69 26.9061 25V5C26.9061 4.31 26.3473 3.75 25.6561 3.75ZM11.0798 22.9212H7.73982V12.1838H11.0798V22.9212ZM9.40982 10.7175C8.33982 10.7175 7.47482 9.85 7.47482 8.7825C7.47482 7.715 8.33857 6.8475 9.40982 6.8475C10.4773 6.8475 11.3448 7.71375 11.3448 8.7825C11.3448 9.85125 10.4773 10.7175 9.40982 10.7175ZM23.5786 22.9212H20.2423V17.7C20.2423 16.455 20.2198 14.8538 18.5073 14.8538C16.7698 14.8538 16.5061 16.2113 16.5061 17.6125V22.9225H13.1723V12.185H16.3723V13.6525H16.4186C16.8623 12.8088 17.9523 11.9187 19.5736 11.9187C22.9536 11.9187 23.5773 14.1412 23.5773 17.0337V22.9212H23.5786Z" fill="#2D389E"/>
</svg>
