<svg width="18" height="18" viewBox="0 0 18 18" fill="none" xmlns="http://www.w3.org/2000/svg">
<path d="M3.95049 17.0687H0.302213V5.83036H3.95049V17.0687ZM2.12415 4.29737C0.957709 4.29737 0.0112305 3.37276 0.0112305 2.25699C0.0112305 1.72094 0.233841 1.20686 0.630091 0.82782C1.02634 0.448781 1.56377 0.23584 2.12415 0.23584C2.68453 0.23584 3.22196 0.448781 3.61821 0.82782C4.01446 1.20686 4.23707 1.72094 4.23707 2.25699C4.23707 3.37276 3.2906 4.29737 2.12415 4.29737ZM17.6047 17.0687H13.9646V11.598C13.9646 10.2941 13.9369 8.62221 12.0678 8.62221C10.1711 8.62221 9.88012 10.0386 9.88012 11.5042V17.0687H6.23561V5.83036H9.73432V7.36336H9.78522C10.2723 6.48023 11.462 5.54841 13.2368 5.54841C16.9291 5.54841 17.6078 7.87435 17.6078 10.8953V17.0687H17.6047Z" fill="#020C12"/>
</svg>
