<svg width="246" height="85" viewBox="0 0 246 85" fill="none" xmlns="http://www.w3.org/2000/svg">
<g filter="url(#filter0_d)">
<g clip-path="url(#clip0)">
<rect x="3" y="1" width="240" height="79" rx="10" fill="#F5FDFE"/>
<rect width="106" height="79" transform="translate(3 1)" fill="#17B87D"/>
<g filter="url(#filter1_d)">
<path d="M39.6437 40.4657L39.5826 40.3594C37.6655 37.0406 36.6533 33.2494 36.655 29.3966C36.6603 17.3059 46.5015 7.46875 58.5923 7.46875C64.4573 7.47051 69.9686 9.75471 74.1099 13.8995C78.2506 18.0438 80.5313 23.5539 80.5313 29.4148C80.5254 41.5073 70.6848 51.345 58.5941 51.345C54.9239 51.3433 51.2985 50.4203 48.1007 48.676L47.9985 48.6196L36.5928 51.6112L39.6437 40.4657Z" fill="#F5FDFE"/>
<path d="M58.5923 7.7623C64.3792 7.76407 69.8165 10.0171 73.902 14.1067C77.9874 18.1963 80.2376 23.6324 80.2376 29.4146C80.2323 41.345 70.5227 51.0511 58.5852 51.0511C54.9727 51.0493 51.396 50.1387 48.2417 48.4179L48.0367 48.3063L47.8111 48.3656L37.0105 51.1973L39.8951 40.6617L39.9597 40.4249L39.8369 40.2123C37.9452 36.9375 36.9464 33.1975 36.9482 29.3964C36.9541 17.4678 46.6631 7.7623 58.5923 7.7623ZM58.5923 7.1748C46.34 7.1748 36.3666 17.1441 36.3613 29.3964C36.3589 33.3127 37.3824 37.1373 39.3282 40.5066L36.175 52.024L47.9603 48.9337C51.2068 50.705 54.864 51.6368 58.5847 51.6386H58.5941C70.8464 51.6386 80.8198 41.6693 80.8251 29.4152C80.8251 23.4768 78.5144 17.8926 74.3173 13.6914C70.1208 9.49073 64.5396 7.17657 58.5923 7.1748Z" fill="#E1E1E1"/>
<path d="M58.4941 47.125C55.5513 47.1232 52.6397 46.383 50.0741 44.983L48.3897 44.0641L46.5338 44.5506L42.7256 45.5487L43.7003 41.9879L44.2332 40.0421L43.2238 38.2949C41.6858 35.6317 40.8732 32.5873 40.875 29.4918C40.8791 19.7786 48.7851 11.8762 58.4982 11.875C63.2112 11.8768 67.6386 13.7115 70.9656 17.0409C74.2926 20.3708 76.125 24.7988 76.125 29.5065C76.1203 39.2214 68.2143 47.125 58.4941 47.125Z" fill="#17B87D"/>
<path d="M68.2295 33.8335C67.7008 33.5697 65.1034 32.2907 64.6205 32.1157C64.1358 31.9388 63.7839 31.8519 63.432 32.3795C63.0801 32.9082 62.0678 34.0973 61.7605 34.4492C61.4527 34.8011 61.1448 34.8452 60.6161 34.582C60.0873 34.3182 58.3854 33.7595 56.3685 31.9606C54.7975 30.5611 53.7376 28.831 53.4304 28.3022C53.1225 27.7735 53.3969 27.4885 53.6619 27.2247C53.8986 26.988 54.1906 26.6073 54.4544 26.2994C54.7182 25.9916 54.8063 25.7707 54.9831 25.4182C55.16 25.0663 55.0719 24.7566 54.9391 24.4929C54.8063 24.2291 53.7506 21.6288 53.3099 20.5725C52.8817 19.5432 52.4451 19.6824 52.1214 19.6666C51.8136 19.6507 51.4617 19.6489 51.1098 19.6489C50.7578 19.6489 50.1844 19.7817 49.7015 20.3104C49.2186 20.8392 47.8527 22.1164 47.8527 24.7155C47.8527 27.3146 49.7456 29.8262 50.0094 30.1781C50.2732 30.53 53.7329 35.8639 59.0334 38.151C60.293 38.6939 61.2782 39.0194 62.0443 39.2638C63.3092 39.6656 64.4607 39.6086 65.3719 39.4723C66.3871 39.3202 68.498 38.1951 68.9363 36.962C69.3769 35.7288 69.3769 34.6713 69.2441 34.4516C69.1102 34.2301 68.7583 34.0973 68.2295 33.8335Z" fill="white"/>
</g>
<g filter="url(#filter2_d)">
<path d="M26.3057 73H23.8936L21.5928 64.9102C21.4938 64.5576 21.3701 64.0505 21.2217 63.3887C21.0732 62.7207 20.9836 62.2568 20.9526 61.9971C20.8908 62.3929 20.7887 62.9062 20.6465 63.5371C20.5104 64.168 20.396 64.638 20.3032 64.9473L18.0581 73H15.646L13.8926 66.209L12.1113 59.4365H14.375L16.314 67.3408C16.617 68.6087 16.8335 69.7282 16.9634 70.6992C17.0314 70.1735 17.1335 69.5859 17.2695 68.9365C17.4056 68.2871 17.5293 67.7614 17.6406 67.3594L19.8486 59.4365H22.0474L24.311 67.3965C24.5275 68.1325 24.7563 69.2334 24.9976 70.6992C25.0903 69.8148 25.313 68.6891 25.6655 67.3223L27.5952 59.4365H29.8403L26.3057 73ZM41.1368 73H38.9102V66.8862H32.6573V73H30.44V59.4365H32.6573V64.9844H38.9102V59.4365H41.1368V73ZM51.7931 73L50.4386 69.2334H45.2526L43.9259 73H41.588L46.6628 59.3809H49.0749L54.1496 73H51.7931ZM49.8542 67.3223L48.5832 63.6299C48.4904 63.3825 48.3605 62.9928 48.1935 62.4609C48.0327 61.929 47.9214 61.5394 47.8595 61.292C47.6925 62.0527 47.4482 62.8846 47.1266 63.7876L45.902 67.3223H49.8542ZM59.2952 73H57.0779V61.3384H53.0886V59.4365H63.2844V61.3384H59.2952V73ZM71.8626 69.3169C71.8626 70.5229 71.4266 71.4692 70.5545 72.1558C69.6824 72.8423 68.4795 73.1855 66.9456 73.1855C65.4118 73.1855 64.1562 72.9474 63.179 72.4712V70.3745C63.7975 70.6652 64.4531 70.894 65.1458 71.061C65.8447 71.228 66.4941 71.3115 67.0941 71.3115C67.9723 71.3115 68.6186 71.1445 69.033 70.8105C69.4536 70.4766 69.6639 70.0282 69.6639 69.4653C69.6639 68.9582 69.4722 68.5283 69.0887 68.1758C68.7052 67.8232 67.9136 67.4058 66.7137 66.9233C65.4767 66.4224 64.6046 65.8503 64.0975 65.207C63.5903 64.5638 63.3367 63.7907 63.3367 62.8877C63.3367 61.7559 63.7388 60.8652 64.5428 60.2158C65.3468 59.5664 66.4261 59.2417 67.7806 59.2417C69.0794 59.2417 70.3721 59.5262 71.6585 60.0952L70.9534 61.9043C69.7474 61.3971 68.6712 61.1436 67.7249 61.1436C67.0075 61.1436 66.4632 61.3013 66.0921 61.6167C65.721 61.9259 65.5355 62.3372 65.5355 62.8506C65.5355 63.2031 65.6097 63.5062 65.7581 63.7598C65.9066 64.0072 66.1509 64.2422 66.491 64.4648C66.8312 64.6875 67.4435 64.9813 68.3279 65.3462C69.3237 65.7606 70.0535 66.1471 70.5174 66.5059C70.9813 66.8646 71.3214 67.2697 71.5379 67.7212C71.7544 68.1727 71.8626 68.7046 71.8626 69.3169ZM81.5727 73L80.2182 69.2334H75.0321L73.7055 73H71.3676L76.4423 59.3809H78.8544L83.9291 73H81.5727ZM79.6337 67.3223L78.3627 63.6299C78.2699 63.3825 78.14 62.9928 77.973 62.4609C77.8122 61.929 77.7009 61.5394 77.6391 61.292C77.4721 62.0527 77.2278 62.8846 76.9062 63.7876L75.6815 67.3223H79.6337ZM93.3701 63.5371C93.3701 64.9535 92.9062 66.0389 91.9785 66.7935C91.0508 67.548 89.7303 67.9253 88.0171 67.9253H86.6069V73H84.3896V59.4365H88.2954C89.99 59.4365 91.258 59.7829 92.0991 60.4756C92.9464 61.1683 93.3701 62.1888 93.3701 63.5371ZM86.6069 66.0605H87.7851C88.9232 66.0605 89.7581 65.8626 90.29 65.4668C90.8219 65.071 91.0879 64.4525 91.0879 63.6113C91.0879 62.832 90.8497 62.2507 90.3735 61.8672C89.8973 61.4837 89.1551 61.292 88.1469 61.292H86.6069V66.0605ZM103.73 63.5371C103.73 64.9535 103.266 66.0389 102.338 66.7935C101.41 67.548 100.09 67.9253 98.3765 67.9253H96.9664V73H94.7491V59.4365H98.6548C100.35 59.4365 101.617 59.7829 102.459 60.4756C103.306 61.1683 103.73 62.1888 103.73 63.5371ZM96.9664 66.0605H98.1446C99.2826 66.0605 100.118 65.8626 100.649 65.4668C101.181 65.071 101.447 64.4525 101.447 63.6113C101.447 62.832 101.209 62.2507 100.733 61.8672C100.257 61.4837 99.5145 61.292 98.5064 61.292H96.9664V66.0605Z" fill="white"/>
</g>
<g filter="url(#filter3_d)">
<path d="M147.122 27.2871C144.574 27.2871 142.57 28.1901 141.11 29.9961C139.651 31.8021 138.921 34.2946 138.921 37.4736C138.921 40.8011 139.62 43.3184 141.018 45.0254C142.428 46.7324 144.463 47.5859 147.122 47.5859C148.272 47.5859 149.386 47.4746 150.462 47.252C151.538 47.0169 152.658 46.7201 153.82 46.3613V50.165C151.693 50.9691 149.281 51.3711 146.584 51.3711C142.613 51.3711 139.564 50.1712 137.437 47.7715C135.309 45.3594 134.245 41.9144 134.245 37.4365C134.245 34.6162 134.758 32.1484 135.785 30.0332C136.824 27.918 138.321 26.2975 140.275 25.1719C142.23 24.0462 144.524 23.4834 147.159 23.4834C149.93 23.4834 152.491 24.0648 154.841 25.2275L153.245 28.9199C152.33 28.487 151.359 28.1097 150.332 27.7881C149.318 27.4541 148.248 27.2871 147.122 27.2871ZM178.399 51H173.945V38.7725H161.44V51H157.005V23.873H161.44V34.9688H173.945V23.873H178.399V51ZM199.711 51L197.002 43.4668H186.63L183.977 51H179.301L189.451 23.7617H194.275L204.424 51H199.711ZM195.833 39.6445L193.291 32.2598C193.106 31.765 192.846 30.9857 192.512 29.9219C192.19 28.8581 191.968 28.0788 191.844 27.584C191.51 29.1055 191.021 30.7692 190.378 32.5752L187.929 39.6445H195.833ZM214.715 51H210.281V27.6768H202.302V23.873H222.694V27.6768H214.715V51Z" fill="#052328"/>
</g>
<g filter="url(#filter4_d)">
<path d="M156.775 60.5117C155.971 60.5117 155.338 60.7969 154.877 61.3672C154.416 61.9375 154.186 62.7246 154.186 63.7285C154.186 64.7793 154.406 65.5742 154.848 66.1133C155.293 66.6523 155.936 66.9219 156.775 66.9219C157.139 66.9219 157.49 66.8867 157.83 66.8164C158.17 66.7422 158.523 66.6484 158.891 66.5352V67.7363C158.219 67.9902 157.457 68.1172 156.605 68.1172C155.352 68.1172 154.389 67.7383 153.717 66.9805C153.045 66.2188 152.709 65.1309 152.709 63.7168C152.709 62.8262 152.871 62.0469 153.195 61.3789C153.523 60.7109 153.996 60.1992 154.613 59.8438C155.23 59.4883 155.955 59.3105 156.787 59.3105C157.662 59.3105 158.471 59.4941 159.213 59.8613L158.709 61.0273C158.42 60.8906 158.113 60.7715 157.789 60.6699C157.469 60.5645 157.131 60.5117 156.775 60.5117ZM159.896 68V59.4336H161.297V66.7988H164.924V68H159.896ZM165.56 68V59.4336H166.961V68H165.56ZM172.033 60.5117C171.228 60.5117 170.595 60.7969 170.134 61.3672C169.673 61.9375 169.443 62.7246 169.443 63.7285C169.443 64.7793 169.664 65.5742 170.105 66.1133C170.55 66.6523 171.193 66.9219 172.033 66.9219C172.396 66.9219 172.748 66.8867 173.087 66.8164C173.427 66.7422 173.781 66.6484 174.148 66.5352V67.7363C173.476 67.9902 172.714 68.1172 171.863 68.1172C170.609 68.1172 169.646 67.7383 168.974 66.9805C168.302 66.2188 167.966 65.1309 167.966 63.7168C167.966 62.8262 168.128 62.0469 168.453 61.3789C168.781 60.7109 169.253 60.1992 169.871 59.8438C170.488 59.4883 171.212 59.3105 172.044 59.3105C172.919 59.3105 173.728 59.4941 174.47 59.8613L173.966 61.0273C173.677 60.8906 173.371 60.7715 173.046 60.6699C172.726 60.5645 172.388 60.5117 172.033 60.5117ZM182.745 68L181.89 65.6211H178.614L177.777 68H176.3L179.505 59.3984H181.029L184.234 68H182.745ZM181.521 64.4141L180.718 62.082C180.659 61.9258 180.577 61.6797 180.472 61.3438C180.37 61.0078 180.3 60.7617 180.261 60.6055C180.155 61.0859 180.001 61.6113 179.798 62.1816L179.025 64.4141H181.521ZM192.13 63.7051C192.13 64.7441 191.931 65.6191 191.532 66.3301C191.138 67.041 190.562 67.541 189.804 67.8301L191.855 70.0391H189.968L188.351 68.1172H188.122C186.829 68.1172 185.835 67.7344 185.14 66.9688C184.448 66.1992 184.103 65.1074 184.103 63.6934C184.103 62.2793 184.45 61.1934 185.146 60.4355C185.845 59.6777 186.841 59.2988 188.134 59.2988C189.407 59.2988 190.392 59.6836 191.087 60.4531C191.782 61.2227 192.13 62.3066 192.13 63.7051ZM185.591 63.7051C185.591 64.7598 185.804 65.5605 186.23 66.1074C186.655 66.6504 187.286 66.9219 188.122 66.9219C188.954 66.9219 189.581 66.6523 190.003 66.1133C190.429 65.5742 190.642 64.7715 190.642 63.7051C190.642 62.6543 190.431 61.8574 190.009 61.3145C189.591 60.7715 188.966 60.5 188.134 60.5C187.294 60.5 186.659 60.7715 186.23 61.3145C185.804 61.8574 185.591 62.6543 185.591 63.7051ZM199.845 59.4336V64.9766C199.845 65.6094 199.708 66.1641 199.434 66.6406C199.165 67.1133 198.772 67.4785 198.257 67.7363C197.745 67.9902 197.132 68.1172 196.417 68.1172C195.354 68.1172 194.528 67.8359 193.938 67.2734C193.349 66.7109 193.054 65.9375 193.054 64.9531V59.4336H194.46V64.8535C194.46 65.5605 194.624 66.082 194.952 66.418C195.28 66.7539 195.784 66.9219 196.464 66.9219C197.784 66.9219 198.444 66.2285 198.444 64.8418V59.4336H199.845ZM201.196 68V59.4336H202.596V68H201.196Z" fill="url(#paint0_linear)"/>
</g>
</g>
<rect x="3.05" y="1.05" width="239.9" height="78.9" rx="9.95" stroke="#020C0D" stroke-opacity="0.5" stroke-width="0.1"/>
</g>
<defs>
<filter id="filter0_d" x="0" y="0" width="246" height="85" filterUnits="userSpaceOnUse" color-interpolation-filters="sRGB">
<feFlood flood-opacity="0" result="BackgroundImageFix"/>
<feColorMatrix in="SourceAlpha" type="matrix" values="0 0 0 0 0 0 0 0 0 0 0 0 0 0 0 0 0 0 127 0"/>
<feMorphology radius="1" operator="dilate" in="SourceAlpha" result="effect1_dropShadow"/>
<feOffset dy="2"/>
<feGaussianBlur stdDeviation="1"/>
<feColorMatrix type="matrix" values="0 0 0 0 0 0 0 0 0 0 0 0 0 0 0 0 0 0 0.25 0"/>
<feBlend mode="normal" in2="BackgroundImageFix" result="effect1_dropShadow"/>
<feBlend mode="normal" in="SourceGraphic" in2="effect1_dropShadow" result="shape"/>
</filter>
<filter id="filter1_d" x="31" y="6" width="55" height="55" filterUnits="userSpaceOnUse" color-interpolation-filters="sRGB">
<feFlood flood-opacity="0" result="BackgroundImageFix"/>
<feColorMatrix in="SourceAlpha" type="matrix" values="0 0 0 0 0 0 0 0 0 0 0 0 0 0 0 0 0 0 127 0"/>
<feOffset dy="4"/>
<feGaussianBlur stdDeviation="2"/>
<feColorMatrix type="matrix" values="0 0 0 0 0 0 0 0 0 0 0 0 0 0 0 0 0 0 0.25 0"/>
<feBlend mode="normal" in2="BackgroundImageFix" result="effect1_dropShadow"/>
<feBlend mode="normal" in="SourceGraphic" in2="effect1_dropShadow" result="shape"/>
</filter>
<filter id="filter2_d" x="10.1113" y="58.2417" width="95.6182" height="17.9438" filterUnits="userSpaceOnUse" color-interpolation-filters="sRGB">
<feFlood flood-opacity="0" result="BackgroundImageFix"/>
<feColorMatrix in="SourceAlpha" type="matrix" values="0 0 0 0 0 0 0 0 0 0 0 0 0 0 0 0 0 0 127 0"/>
<feOffset dy="1"/>
<feGaussianBlur stdDeviation="1"/>
<feColorMatrix type="matrix" values="0 0 0 0 0 0 0 0 0 0 0 0 0 0 0 0 0 0 0.25 0"/>
<feBlend mode="normal" in2="BackgroundImageFix" result="effect1_dropShadow"/>
<feBlend mode="normal" in="SourceGraphic" in2="effect1_dropShadow" result="shape"/>
</filter>
<filter id="filter3_d" x="130.245" y="23.4834" width="96.4487" height="35.8877" filterUnits="userSpaceOnUse" color-interpolation-filters="sRGB">
<feFlood flood-opacity="0" result="BackgroundImageFix"/>
<feColorMatrix in="SourceAlpha" type="matrix" values="0 0 0 0 0 0 0 0 0 0 0 0 0 0 0 0 0 0 127 0"/>
<feOffset dy="4"/>
<feGaussianBlur stdDeviation="2"/>
<feColorMatrix type="matrix" values="0 0 0 0 0 0 0 0 0 0 0 0 0 0 0 0 0 0 0.25 0"/>
<feBlend mode="normal" in2="BackgroundImageFix" result="effect1_dropShadow"/>
<feBlend mode="normal" in="SourceGraphic" in2="effect1_dropShadow" result="shape"/>
</filter>
<filter id="filter4_d" x="148.709" y="59.2988" width="57.8874" height="18.7402" filterUnits="userSpaceOnUse" color-interpolation-filters="sRGB">
<feFlood flood-opacity="0" result="BackgroundImageFix"/>
<feColorMatrix in="SourceAlpha" type="matrix" values="0 0 0 0 0 0 0 0 0 0 0 0 0 0 0 0 0 0 127 0"/>
<feOffset dy="4"/>
<feGaussianBlur stdDeviation="2"/>
<feColorMatrix type="matrix" values="0 0 0 0 0 0 0 0 0 0 0 0 0 0 0 0 0 0 0.25 0"/>
<feBlend mode="normal" in2="BackgroundImageFix" result="effect1_dropShadow"/>
<feBlend mode="normal" in="SourceGraphic" in2="effect1_dropShadow" result="shape"/>
</filter>
<linearGradient id="paint0_linear" x1="178" y1="55" x2="178" y2="71" gradientUnits="userSpaceOnUse">
<stop stop-color="#041824" stop-opacity="0.95"/>
<stop offset="1" stop-color="#05003D" stop-opacity="0.85"/>
</linearGradient>
<clipPath id="clip0">
<rect x="3" y="1" width="240" height="79" rx="10" fill="white"/>
</clipPath>
</defs>
</svg>
