<svg width="31" height="30" viewBox="0 0 31 30" fill="none" xmlns="http://www.w3.org/2000/svg">
<path d="M27.6473 9.00376C27.3598 7.93126 26.5161 7.08501 25.4448 6.79626C23.4873 6.25876 15.6561 6.25001 15.6561 6.25001C15.6561 6.25001 7.82605 6.24126 5.8673 6.75501C4.8173 7.04126 3.9498 7.90626 3.6598 8.97751C3.14355 10.935 3.13855 14.995 3.13855 14.995C3.13855 14.995 3.13355 19.075 3.64605 21.0125C3.93355 22.0838 4.7773 22.93 5.8498 23.2188C7.8273 23.7563 15.6373 23.765 15.6373 23.765C15.6373 23.765 23.4686 23.7738 25.4261 23.2613C26.4961 22.9738 27.3436 22.1288 27.6348 21.0575C28.1523 19.1013 28.1561 15.0425 28.1561 15.0425C28.1561 15.0425 28.1811 10.9613 27.6473 9.00376ZM13.1511 18.7563L13.1573 11.2563L19.6661 15.0125L13.1511 18.7563Z" fill="#E22424"/>
</svg>
