<svg width="25" height="20" viewBox="0 0 25 20" fill="none" xmlns="http://www.w3.org/2000/svg">
<path d="M24.3519 10.2084C24.3519 10.1452 24.3519 10.0733 24.3493 9.99C24.3466 9.75727 24.3413 9.4958 24.336 9.21709C24.3148 8.41546 24.2777 7.61669 24.2194 6.8639C24.1398 5.82665 24.0232 4.9618 23.8641 4.31245C23.6962 3.63479 23.3671 3.01675 22.9098 2.5201C22.4524 2.02345 21.8828 1.66559 21.2578 1.48229C20.5075 1.26392 19.0386 1.12888 16.9705 1.04556C15.9869 1.00533 14.9343 0.979472 13.8817 0.965106C13.5132 0.95936 13.1711 0.956487 12.8636 0.953613H12.0841C11.7765 0.956487 11.4345 0.95936 11.0659 0.965106C10.0134 0.979472 8.96076 1.00533 7.9771 1.04556C5.90904 1.13175 4.43753 1.2668 3.68985 1.48229C3.06466 1.66514 2.49479 2.02285 2.03737 2.51957C1.57994 3.01629 1.25101 3.63457 1.08355 4.31245C0.921821 4.9618 0.807812 5.82665 0.728271 6.8639C0.669941 7.61669 0.632822 8.41546 0.611611 9.21709C0.603657 9.4958 0.601006 9.75727 0.598354 9.99C0.598354 10.0733 0.595703 10.1452 0.595703 10.2084V10.3693C0.595703 10.4325 0.595703 10.5043 0.598354 10.5876C0.601006 10.8204 0.606309 11.0818 0.611611 11.3605C0.632822 12.1622 0.669941 12.9609 0.728271 13.7137C0.807812 14.751 0.924472 15.6158 1.08355 16.2652C1.42293 17.6415 2.41984 18.7276 3.68985 19.0953C4.43753 19.3137 5.90904 19.4488 7.9771 19.5321C8.96076 19.5723 10.0134 19.5982 11.0659 19.6125C11.4345 19.6183 11.7765 19.6212 12.0841 19.624H12.8636C13.1711 19.6212 13.5132 19.6183 13.8817 19.6125C14.9343 19.5982 15.9869 19.5723 16.9705 19.5321C19.0386 19.4459 20.5101 19.3108 21.2578 19.0953C22.5278 18.7276 23.5247 17.6444 23.8641 16.2652C24.0258 15.6158 24.1398 14.751 24.2194 13.7137C24.2777 12.9609 24.3148 12.1622 24.336 11.3605C24.344 11.0818 24.3466 10.8204 24.3493 10.5876C24.3493 10.5043 24.3519 10.4325 24.3519 10.3693V10.2084ZM22.4429 10.3578C22.4429 10.4181 22.443 10.4842 22.4403 10.5618C22.4376 10.7859 22.4323 11.033 22.427 11.3002C22.4085 12.0645 22.3714 12.8288 22.3157 13.5385C22.2441 14.4637 22.1433 15.2222 22.0187 15.7308C21.8543 16.3945 21.3718 16.9203 20.762 17.0956C20.2052 17.2565 18.8026 17.3858 16.8963 17.4633C15.9312 17.5036 14.8919 17.5294 13.8552 17.5438C13.4919 17.5495 13.1552 17.5524 12.853 17.5524H12.0947L11.0925 17.5438C10.0558 17.5294 9.01909 17.5036 8.05134 17.4633C6.14501 17.3829 4.73979 17.2565 4.18565 17.0956C3.57584 16.9174 3.09329 16.3945 2.9289 15.7308C2.80429 15.2222 2.70354 14.4637 2.63195 13.5385C2.57627 12.8288 2.54181 12.0645 2.52059 11.3002C2.51264 11.033 2.50999 10.783 2.50734 10.5618C2.50734 10.4842 2.50469 10.4152 2.50469 10.3578V10.2199C2.50469 10.1595 2.50469 10.0934 2.50734 10.0159C2.50999 9.79175 2.51529 9.54465 2.52059 9.27743C2.53915 8.51315 2.57627 7.74886 2.63195 7.03917C2.70354 6.11398 2.80429 5.35544 2.9289 4.84687C3.09329 4.18315 3.57584 3.65735 4.18565 3.48208C4.74244 3.32118 6.14501 3.19188 8.05134 3.1143C9.01644 3.07407 10.0558 3.04822 11.0925 3.03385C11.4557 3.0281 11.7924 3.02523 12.0947 3.02523H12.853L13.8552 3.03385C14.8919 3.04822 15.9285 3.07407 16.8963 3.1143C18.8026 3.19475 20.2078 3.32118 20.762 3.48208C21.3718 3.66022 21.8543 4.18315 22.0187 4.84687C22.1433 5.35544 22.2441 6.11398 22.3157 7.03917C22.3714 7.74886 22.4058 8.51315 22.427 9.27743C22.435 9.54465 22.4376 9.79462 22.4403 10.0159C22.4403 10.0934 22.4429 10.1624 22.4429 10.2199V10.3578ZM10.1141 14.139L16.2653 10.2601L10.1141 6.43866V14.139Z" fill="#020C12"/>
</svg>
