<svg width="251" height="77" viewBox="0 0 251 77" fill="none" xmlns="http://www.w3.org/2000/svg">
<path d="M34.2372 65.1544C45.5872 63.047 70.2042 58.2253 77.8721 55.7976C79.1851 55.2602 81.5834 55.159 80.6731 59.0535C79.5352 63.9216 39.0515 87.693 30.6046 68.1891C27.5118 68.1258 18 69.6242 4.69504 76.1234C-8.60988 82.6226 9.26609 51.4871 22.3084 32.1096C25.8826 27.4312 35.563 12.7609 57.0394 10.6573C71.6573 -2.3348 97.917 -12.3871 86.0126 51.3405C85.1664 53.0369 82.9139 55.4119 80.6731 51.3405C80.6731 40.7614 80.1129 19.1985 77.8721 17.58C76.9238 14.5981 71.7098 9.65204 58.4399 13.7235C51.5832 19.4872 37.1433 37.8426 34.2372 65.1544Z" fill="#F5FDFE"/>
<path d="M83.2115 63.0681C79.8999 65.5443 72.1387 70.9392 67.587 72.7094C66.7409 73.3205 65.9152 74.5618 69.3814 74.6377C72.8477 74.7135 79.8124 74.6693 82.8614 74.6377C85.1956 74.585 89.4438 73.9802 87.7632 71.9824C86.0826 69.9845 85.925 65.9658 86.0563 64.2061C85.9542 63.5212 85.2423 62.3347 83.2115 63.0681Z" fill="#F5FDFE"/>
<path d="M127.253 41.2349C127.493 41.7749 127.613 42.2549 127.613 42.6749C127.613 43.5149 127.268 44.2349 126.578 44.8349C125.918 45.4049 125.153 45.6899 124.283 45.6899C123.713 45.6899 123.173 45.5399 122.663 45.2399C122.153 44.9099 121.763 44.4299 121.493 43.7999L119.108 38.4899H103.853L101.468 43.7999C101.198 44.4299 100.808 44.9099 100.298 45.2399C99.8178 45.5399 99.2778 45.6899 98.6778 45.6899C97.8078 45.6899 97.0278 45.4049 96.3378 44.8349C95.6478 44.2349 95.3028 43.5149 95.3028 42.6749C95.3028 42.2549 95.4228 41.7749 95.6628 41.2349L107.813 15.7199C108.143 14.9999 108.638 14.4599 109.298 14.0999C109.958 13.7099 110.663 13.5149 111.413 13.5149C112.193 13.5149 112.913 13.7099 113.573 14.0999C114.233 14.4899 114.743 15.0299 115.103 15.7199L127.253 41.2349ZM106.238 33.1799H116.723L111.503 21.4799L106.238 33.1799ZM138.284 45.7349C137.234 45.7349 136.379 45.4199 135.719 44.7899C135.089 44.1599 134.774 43.3199 134.774 42.2699V19.4999H127.484C125.264 19.4999 124.154 18.5399 124.154 16.6199C124.154 14.7299 125.264 13.7849 127.484 13.7849H149.084C151.304 13.7849 152.414 14.7299 152.414 16.6199C152.414 18.5399 151.304 19.4999 149.084 19.4999H141.794V42.2699C141.794 43.3199 141.479 44.1599 140.849 44.7899C140.219 45.4199 139.364 45.7349 138.284 45.7349ZM158.717 45.5099C157.667 45.5099 156.857 45.2249 156.287 44.6549C155.717 44.0849 155.432 43.2749 155.432 42.2249V17.0249C155.432 15.9749 155.747 15.1349 156.377 14.5049C157.007 13.8749 157.862 13.5599 158.942 13.5599C160.022 13.5599 160.877 13.8749 161.507 14.5049C162.137 15.1349 162.452 15.9749 162.452 17.0249V39.7949H173.972C176.162 39.7949 177.257 40.7549 177.257 42.6749C177.257 44.5649 176.162 45.5099 173.972 45.5099H158.717ZM210.309 41.2349C210.549 41.7749 210.669 42.2549 210.669 42.6749C210.669 43.5149 210.324 44.2349 209.634 44.8349C208.974 45.4049 208.209 45.6899 207.339 45.6899C206.769 45.6899 206.229 45.5399 205.719 45.2399C205.209 44.9099 204.819 44.4299 204.549 43.7999L202.164 38.4899H186.909L184.524 43.7999C184.254 44.4299 183.864 44.9099 183.354 45.2399C182.874 45.5399 182.334 45.6899 181.734 45.6899C180.864 45.6899 180.084 45.4049 179.394 44.8349C178.704 44.2349 178.359 43.5149 178.359 42.6749C178.359 42.2549 178.479 41.7749 178.719 41.2349L190.869 15.7199C191.199 14.9999 191.694 14.4599 192.354 14.0999C193.014 13.7099 193.719 13.5149 194.469 13.5149C195.249 13.5149 195.969 13.7099 196.629 14.0999C197.289 14.4899 197.799 15.0299 198.159 15.7199L210.309 41.2349ZM189.294 33.1799H199.779L194.559 21.4799L189.294 33.1799ZM225.529 45.9149C223.159 45.9149 220.954 45.6449 218.914 45.1049C216.874 44.5349 215.209 43.7399 213.919 42.7199C213.469 42.3899 213.139 42.0449 212.929 41.6849C212.749 41.2949 212.659 40.8149 212.659 40.2449C212.659 39.4949 212.884 38.8349 213.334 38.2649C213.814 37.6949 214.354 37.4099 214.954 37.4099C215.284 37.4099 215.599 37.4699 215.899 37.5899C216.229 37.6799 216.619 37.8599 217.069 38.1299C218.359 38.9399 219.664 39.5399 220.984 39.9299C222.304 40.2899 223.759 40.4699 225.349 40.4699C227.329 40.4699 228.844 40.1399 229.894 39.4799C230.944 38.8199 231.469 37.8749 231.469 36.6449C231.469 35.7149 230.974 34.9649 229.984 34.3949C229.024 33.8249 227.299 33.2849 224.809 32.7749C222.019 32.2049 219.784 31.5149 218.104 30.7049C216.454 29.8949 215.239 28.8899 214.459 27.6899C213.709 26.4899 213.334 25.0349 213.334 23.3249C213.334 21.4349 213.874 19.7399 214.954 18.2399C216.064 16.7099 217.579 15.5249 219.499 14.6849C221.449 13.8149 223.639 13.3799 226.069 13.3799C230.329 13.3799 233.839 14.4449 236.599 16.5749C237.049 16.9349 237.364 17.3099 237.544 17.6999C237.754 18.0599 237.859 18.5099 237.859 19.0499C237.859 19.7999 237.619 20.4599 237.139 21.0299C236.689 21.5999 236.164 21.8849 235.564 21.8849C235.234 21.8849 234.919 21.8399 234.619 21.7499C234.349 21.6599 233.959 21.4649 233.449 21.1649C232.219 20.3849 231.079 19.7999 230.029 19.4099C229.009 19.0199 227.704 18.8249 226.114 18.8249C224.284 18.8249 222.844 19.1849 221.794 19.9049C220.744 20.5949 220.219 21.5549 220.219 22.7849C220.219 23.5049 220.414 24.1049 220.804 24.5849C221.224 25.0349 221.899 25.4399 222.829 25.7999C223.789 26.1599 225.139 26.5349 226.879 26.9249C230.959 27.8249 233.884 28.9799 235.654 30.3899C237.454 31.7999 238.354 33.7349 238.354 36.1949C238.354 38.1149 237.814 39.8099 236.734 41.2799C235.684 42.7499 234.184 43.8899 232.234 44.6999C230.314 45.5099 228.079 45.9149 225.529 45.9149Z" fill="white"/>
<path d="M103.492 73.176C102.025 73.176 100.757 72.8607 99.686 72.23C98.6153 71.5847 97.7867 70.668 97.2 69.48C96.628 68.2773 96.342 66.862 96.342 65.234C96.342 63.6207 96.628 62.22 97.2 61.032C97.7867 59.8293 98.6153 58.9127 99.686 58.282C100.757 57.6367 102.025 57.314 103.492 57.314C104.475 57.314 105.399 57.4753 106.264 57.798C107.144 58.106 107.907 58.5533 108.552 59.14C108.787 59.36 108.904 59.6167 108.904 59.91C108.904 60.1153 108.845 60.2987 108.728 60.46C108.611 60.6067 108.471 60.68 108.31 60.68C108.134 60.68 107.921 60.5993 107.672 60.438C106.924 59.8513 106.242 59.4407 105.626 59.206C105.025 58.9713 104.328 58.854 103.536 58.854C101.835 58.854 100.522 59.4113 99.598 60.526C98.6887 61.626 98.234 63.1953 98.234 65.234C98.234 67.2873 98.6887 68.8713 99.598 69.986C100.522 71.086 101.835 71.636 103.536 71.636C104.313 71.636 105.01 71.5187 105.626 71.284C106.242 71.0493 106.924 70.6387 107.672 70.052C107.921 69.8907 108.134 69.81 108.31 69.81C108.471 69.81 108.611 69.8833 108.728 70.03C108.845 70.1767 108.904 70.36 108.904 70.58C108.904 70.8733 108.787 71.13 108.552 71.35C107.907 71.9367 107.144 72.3913 106.264 72.714C105.399 73.022 104.475 73.176 103.492 73.176ZM118.056 73.176C116.619 73.176 115.365 72.8533 114.294 72.208C113.238 71.5627 112.424 70.646 111.852 69.458C111.28 68.27 110.994 66.8693 110.994 65.256C110.994 63.628 111.273 62.22 111.83 61.032C112.402 59.8293 113.216 58.9127 114.272 58.282C115.343 57.6367 116.604 57.314 118.056 57.314C119.508 57.314 120.762 57.6367 121.818 58.282C122.889 58.9127 123.703 59.8293 124.26 61.032C124.832 62.22 125.118 63.6207 125.118 65.234C125.118 66.8473 124.832 68.2553 124.26 69.458C123.688 70.646 122.867 71.5627 121.796 72.208C120.74 72.8533 119.494 73.176 118.056 73.176ZM118.056 71.636C119.699 71.636 120.975 71.086 121.884 69.986C122.808 68.8713 123.27 67.2873 123.27 65.234C123.27 63.1807 122.816 61.604 121.906 60.504C120.997 59.404 119.714 58.854 118.056 58.854C116.414 58.854 115.13 59.4113 114.206 60.526C113.297 61.626 112.842 63.1953 112.842 65.234C112.842 67.2727 113.297 68.8493 114.206 69.964C115.13 71.0787 116.414 71.636 118.056 71.636ZM139.961 57.38C140.225 57.38 140.43 57.468 140.577 57.644C140.724 57.8053 140.797 58.0253 140.797 58.304V72.186C140.797 72.4647 140.716 72.692 140.555 72.868C140.408 73.0293 140.196 73.11 139.917 73.11C139.638 73.11 139.396 72.9853 139.191 72.736L130.061 60.526V72.186C130.061 72.4647 129.98 72.692 129.819 72.868C129.672 73.0293 129.467 73.11 129.203 73.11C128.939 73.11 128.734 73.0293 128.587 72.868C128.44 72.692 128.367 72.4647 128.367 72.186V58.304C128.367 58.0253 128.44 57.8053 128.587 57.644C128.748 57.468 128.968 57.38 129.247 57.38C129.54 57.38 129.79 57.5047 129.995 57.754L139.103 69.964V58.304C139.103 58.0253 139.176 57.8053 139.323 57.644C139.484 57.468 139.697 57.38 139.961 57.38ZM156.225 57.38C156.489 57.38 156.694 57.468 156.841 57.644C156.987 57.8053 157.061 58.0253 157.061 58.304V72.186C157.061 72.4647 156.98 72.692 156.819 72.868C156.672 73.0293 156.459 73.11 156.181 73.11C155.902 73.11 155.66 72.9853 155.455 72.736L146.325 60.526V72.186C146.325 72.4647 146.244 72.692 146.083 72.868C145.936 73.0293 145.731 73.11 145.467 73.11C145.203 73.11 144.997 73.0293 144.851 72.868C144.704 72.692 144.631 72.4647 144.631 72.186V58.304C144.631 58.0253 144.704 57.8053 144.851 57.644C145.012 57.468 145.232 57.38 145.511 57.38C145.804 57.38 146.053 57.5047 146.259 57.754L155.367 69.964V58.304C155.367 58.0253 155.44 57.8053 155.587 57.644C155.748 57.468 155.961 57.38 156.225 57.38ZM161.818 73C161.54 73 161.312 72.9193 161.136 72.758C160.975 72.5967 160.894 72.384 160.894 72.12V58.37C160.894 58.106 160.975 57.8933 161.136 57.732C161.312 57.5707 161.54 57.49 161.818 57.49H170.046C170.31 57.49 170.516 57.556 170.662 57.688C170.809 57.82 170.882 58.0033 170.882 58.238C170.882 58.4727 170.809 58.656 170.662 58.788C170.516 58.92 170.31 58.986 170.046 58.986H162.676V64.376H169.606C169.87 64.376 170.076 64.442 170.222 64.574C170.369 64.706 170.442 64.8893 170.442 65.124C170.442 65.3587 170.369 65.542 170.222 65.674C170.076 65.806 169.87 65.872 169.606 65.872H162.676V71.504H170.046C170.31 71.504 170.516 71.57 170.662 71.702C170.809 71.8193 170.882 72.0027 170.882 72.252C170.882 72.4867 170.809 72.67 170.662 72.802C170.516 72.934 170.31 73 170.046 73H161.818ZM180.191 73.176C178.725 73.176 177.456 72.8607 176.385 72.23C175.315 71.5847 174.486 70.668 173.899 69.48C173.327 68.2773 173.041 66.862 173.041 65.234C173.041 63.6207 173.327 62.22 173.899 61.032C174.486 59.8293 175.315 58.9127 176.385 58.282C177.456 57.6367 178.725 57.314 180.191 57.314C181.174 57.314 182.098 57.4753 182.963 57.798C183.843 58.106 184.606 58.5533 185.251 59.14C185.486 59.36 185.603 59.6167 185.603 59.91C185.603 60.1153 185.545 60.2987 185.427 60.46C185.31 60.6067 185.171 60.68 185.009 60.68C184.833 60.68 184.621 60.5993 184.371 60.438C183.623 59.8513 182.941 59.4407 182.325 59.206C181.724 58.9713 181.027 58.854 180.235 58.854C178.534 58.854 177.221 59.4113 176.297 60.526C175.388 61.626 174.933 63.1953 174.933 65.234C174.933 67.2873 175.388 68.8713 176.297 69.986C177.221 71.086 178.534 71.636 180.235 71.636C181.013 71.636 181.709 71.5187 182.325 71.284C182.941 71.0493 183.623 70.6387 184.371 70.052C184.621 69.8907 184.833 69.81 185.009 69.81C185.171 69.81 185.31 69.8833 185.427 70.03C185.545 70.1767 185.603 70.36 185.603 70.58C185.603 70.8733 185.486 71.13 185.251 71.35C184.606 71.9367 183.843 72.3913 182.963 72.714C182.098 73.022 181.174 73.176 180.191 73.176ZM192.951 73.11C192.672 73.11 192.445 73.0293 192.269 72.868C192.108 72.692 192.027 72.4647 192.027 72.186V59.03H187.297C187.033 59.03 186.828 58.964 186.681 58.832C186.534 58.7 186.461 58.5093 186.461 58.26C186.461 58.0107 186.534 57.82 186.681 57.688C186.828 57.556 187.033 57.49 187.297 57.49H198.583C198.847 57.49 199.052 57.556 199.199 57.688C199.346 57.82 199.419 58.0107 199.419 58.26C199.419 58.5093 199.346 58.7 199.199 58.832C199.052 58.964 198.847 59.03 198.583 59.03H193.853V72.186C193.853 72.4647 193.772 72.692 193.611 72.868C193.45 73.0293 193.23 73.11 192.951 73.11Z" fill="white"/>
</svg>
