<svg width="236" height="87" viewBox="0 0 236 87" fill="none" xmlns="http://www.w3.org/2000/svg">
<path d="M33.5938 72.1259C44.399 69.7895 67.8344 64.4438 75.1342 61.7523C76.3842 61.1565 78.6674 61.0443 77.8008 65.362C76.7175 70.7591 38.177 97.1136 30.1356 75.4903C27.1912 75.4202 18.136 77.0813 5.46968 84.2868C-7.1966 91.4922 9.82132 56.9733 22.2376 35.4902C25.6403 30.3034 34.856 14.039 55.3015 11.7067C69.2177 -2.69718 94.217 -13.8418 82.884 56.8108C82.0784 58.6916 79.9341 61.3247 77.8008 56.8108C77.8008 45.0821 77.2675 21.1761 75.1342 19.3817C74.2315 16.0757 69.2677 10.5922 56.6348 15.1061C50.1072 21.4962 36.3604 41.8462 33.5938 72.1259Z" fill="#121A2E"/>
<path d="M80.2174 69.8128C77.0647 72.5581 69.676 78.5393 65.3428 80.5018C64.5373 81.1794 63.7512 82.5555 67.0511 82.6396C70.351 82.7237 76.9814 82.6747 79.8841 82.6396C82.1062 82.5812 86.1505 81.9107 84.5506 79.6958C82.9506 77.4809 82.8006 73.0254 82.9256 71.0745C82.8284 70.3151 82.1507 68.9998 80.2174 69.8128Z" fill="#121A2E"/>
<path d="M33.5938 72.1259C44.399 69.7895 67.8344 64.4438 75.1342 61.7523C76.3842 61.1565 78.6674 61.0443 77.8008 65.362C76.7175 70.7591 38.177 97.1136 30.1356 75.4903C27.1912 75.4202 18.136 77.0813 5.46968 84.2868C-7.1966 91.4922 9.82132 56.9733 22.2376 35.4902C25.6403 30.3034 34.856 14.039 55.3015 11.7067C69.2177 -2.69718 94.217 -13.8418 82.884 56.8108C82.0784 58.6916 79.9341 61.3247 77.8008 56.8108C77.8008 45.0821 77.2675 21.1761 75.1342 19.3817C74.2315 16.0757 69.2677 10.5922 56.6348 15.1061C50.1072 21.4962 36.3604 41.8462 33.5938 72.1259Z" stroke="#4D4D61" stroke-width="2"/>
<path d="M80.2174 69.8128C77.0647 72.5581 69.676 78.5393 65.3428 80.5018C64.5373 81.1794 63.7512 82.5555 67.0511 82.6396C70.351 82.7237 76.9814 82.6747 79.8841 82.6396C82.1062 82.5812 86.1505 81.9107 84.5506 79.6958C82.9506 77.4809 82.8006 73.0254 82.9256 71.0745C82.8284 70.3151 82.1507 68.9998 80.2174 69.8128Z" stroke="#4D4D61" stroke-width="2"/>
<path d="M122.261 42.915C122.49 43.431 122.605 43.8897 122.605 44.291C122.605 45.0937 122.275 45.7817 121.616 46.355C120.985 46.8997 120.254 47.172 119.423 47.172C118.878 47.172 118.362 47.0287 117.875 46.742C117.388 46.4267 117.015 45.968 116.757 45.366L114.478 40.292H99.901L97.622 45.366C97.364 45.968 96.9913 46.4267 96.504 46.742C96.0453 47.0287 95.5293 47.172 94.956 47.172C94.1247 47.172 93.3793 46.8997 92.72 46.355C92.0607 45.7817 91.731 45.0937 91.731 44.291C91.731 43.8897 91.8457 43.431 92.075 42.915L103.685 18.534C104 17.846 104.473 17.33 105.104 16.986C105.735 16.6133 106.408 16.427 107.125 16.427C107.87 16.427 108.558 16.6133 109.189 16.986C109.82 17.3587 110.307 17.8747 110.651 18.534L122.261 42.915ZM102.18 35.218H112.199L107.211 24.038L102.18 35.218ZM132.802 47.215C131.798 47.215 130.981 46.914 130.351 46.312C129.749 45.71 129.448 44.9073 129.448 43.904V22.146H122.482C120.36 22.146 119.3 21.2287 119.3 19.394C119.3 17.588 120.36 16.685 122.482 16.685H143.122C145.243 16.685 146.304 17.588 146.304 19.394C146.304 21.2287 145.243 22.146 143.122 22.146H136.156V43.904C136.156 44.9073 135.855 45.71 135.253 46.312C134.651 46.914 133.834 47.215 132.802 47.215ZM152.327 47C151.323 47 150.549 46.7277 150.005 46.183C149.46 45.6383 149.188 44.8643 149.188 43.861V19.781C149.188 18.7777 149.489 17.975 150.091 17.373C150.693 16.771 151.51 16.47 152.542 16.47C153.574 16.47 154.391 16.771 154.993 17.373C155.595 17.975 155.896 18.7777 155.896 19.781V41.539H166.904C168.996 41.539 170.043 42.4563 170.043 44.291C170.043 46.097 168.996 47 166.904 47H152.327ZM201.626 42.915C201.856 43.431 201.97 43.8897 201.97 44.291C201.97 45.0937 201.641 45.7817 200.981 46.355C200.351 46.8997 199.62 47.172 198.788 47.172C198.244 47.172 197.728 47.0287 197.24 46.742C196.753 46.4267 196.38 45.968 196.122 45.366L193.843 40.292H179.266L176.987 45.366C176.729 45.968 176.357 46.4267 175.869 46.742C175.411 47.0287 174.895 47.172 174.321 47.172C173.49 47.172 172.745 46.8997 172.085 46.355C171.426 45.7817 171.096 45.0937 171.096 44.291C171.096 43.8897 171.211 43.431 171.44 42.915L183.05 18.534C183.366 17.846 183.839 17.33 184.469 16.986C185.1 16.6133 185.774 16.427 186.49 16.427C187.236 16.427 187.924 16.6133 188.554 16.986C189.185 17.3587 189.672 17.8747 190.016 18.534L201.626 42.915ZM181.545 35.218H191.564L186.576 24.038L181.545 35.218ZM216.169 47.387C213.905 47.387 211.798 47.129 209.848 46.613C207.899 46.0683 206.308 45.3087 205.075 44.334C204.645 44.0187 204.33 43.689 204.129 43.345C203.957 42.9723 203.871 42.5137 203.871 41.969C203.871 41.2523 204.086 40.6217 204.516 40.077C204.975 39.5323 205.491 39.26 206.064 39.26C206.38 39.26 206.681 39.3173 206.967 39.432C207.283 39.518 207.655 39.69 208.085 39.948C209.318 40.722 210.565 41.2953 211.826 41.668C213.088 42.012 214.478 42.184 215.997 42.184C217.889 42.184 219.337 41.8687 220.34 41.238C221.344 40.6073 221.845 39.7043 221.845 38.529C221.845 37.6403 221.372 36.9237 220.426 36.379C219.509 35.8343 217.861 35.3183 215.481 34.831C212.815 34.2863 210.68 33.627 209.074 32.853C207.498 32.079 206.337 31.1187 205.591 29.972C204.875 28.8253 204.516 27.435 204.516 25.801C204.516 23.995 205.032 22.3753 206.064 20.942C207.125 19.48 208.573 18.3477 210.407 17.545C212.271 16.7137 214.363 16.298 216.685 16.298C220.756 16.298 224.11 17.3157 226.747 19.351C227.177 19.695 227.478 20.0533 227.65 20.426C227.851 20.77 227.951 21.2 227.951 21.716C227.951 22.4327 227.722 23.0633 227.263 23.608C226.833 24.1527 226.332 24.425 225.758 24.425C225.443 24.425 225.142 24.382 224.855 24.296C224.597 24.21 224.225 24.0237 223.737 23.737C222.562 22.9917 221.473 22.4327 220.469 22.06C219.495 21.6873 218.248 21.501 216.728 21.501C214.98 21.501 213.604 21.845 212.6 22.533C211.597 23.1923 211.095 24.1097 211.095 25.285C211.095 25.973 211.282 26.5463 211.654 27.005C212.056 27.435 212.701 27.822 213.589 28.166C214.507 28.51 215.797 28.8683 217.459 29.241C221.358 30.101 224.153 31.2047 225.844 32.552C227.564 33.8993 228.424 35.7483 228.424 38.099C228.424 39.9337 227.908 41.5533 226.876 42.958C225.873 44.3627 224.44 45.452 222.576 46.226C220.742 47 218.606 47.387 216.169 47.387Z" fill="#05003D"/>
<path d="M105.574 71.013C105.63 71.125 105.658 71.244 105.658 71.37C105.658 71.58 105.574 71.755 105.406 71.895C105.252 72.035 105.063 72.105 104.839 72.105C104.489 72.105 104.244 71.937 104.104 71.601L102.613 68.199H94.696L93.184 71.601C93.044 71.937 92.799 72.105 92.449 72.105C92.225 72.105 92.029 72.035 91.861 71.895C91.693 71.741 91.609 71.559 91.609 71.349C91.609 71.237 91.637 71.125 91.693 71.013L97.699 57.657C97.783 57.461 97.909 57.314 98.077 57.216C98.245 57.118 98.427 57.069 98.623 57.069C98.833 57.069 99.022 57.125 99.19 57.237C99.358 57.335 99.484 57.475 99.568 57.657L105.574 71.013ZM95.326 66.771H101.983L98.644 59.232L95.326 66.771ZM113.757 72.168C111.825 72.168 110.362 71.664 109.368 70.656C108.374 69.648 107.877 68.164 107.877 66.204V57.972C107.877 57.706 107.954 57.496 108.108 57.342C108.262 57.174 108.472 57.09 108.738 57.09C108.99 57.09 109.193 57.174 109.347 57.342C109.501 57.496 109.578 57.706 109.578 57.972V66.351C109.578 67.793 109.928 68.878 110.628 69.606C111.342 70.334 112.385 70.698 113.757 70.698C115.129 70.698 116.165 70.334 116.865 69.606C117.565 68.878 117.915 67.793 117.915 66.351V57.972C117.915 57.706 117.992 57.496 118.146 57.342C118.314 57.174 118.524 57.09 118.776 57.09C119.042 57.09 119.252 57.174 119.406 57.342C119.56 57.496 119.637 57.706 119.637 57.972V66.204C119.637 68.15 119.133 69.634 118.125 70.656C117.131 71.664 115.675 72.168 113.757 72.168ZM127.631 72.105C127.365 72.105 127.148 72.028 126.98 71.874C126.826 71.706 126.749 71.489 126.749 71.223V58.665H122.234C121.982 58.665 121.786 58.602 121.646 58.476C121.506 58.35 121.436 58.168 121.436 57.93C121.436 57.692 121.506 57.51 121.646 57.384C121.786 57.258 121.982 57.195 122.234 57.195H133.007C133.259 57.195 133.455 57.258 133.595 57.384C133.735 57.51 133.805 57.692 133.805 57.93C133.805 58.168 133.735 58.35 133.595 58.476C133.455 58.602 133.259 58.665 133.007 58.665H128.492V71.223C128.492 71.489 128.415 71.706 128.261 71.874C128.107 72.028 127.897 72.105 127.631 72.105ZM141.001 72.168C139.629 72.168 138.432 71.86 137.41 71.244C136.402 70.628 135.625 69.753 135.079 68.619C134.533 67.485 134.26 66.148 134.26 64.608C134.26 63.054 134.526 61.71 135.058 60.576C135.604 59.428 136.381 58.553 137.389 57.951C138.411 57.335 139.615 57.027 141.001 57.027C142.387 57.027 143.584 57.335 144.592 57.951C145.614 58.553 146.391 59.428 146.923 60.576C147.469 61.71 147.742 63.047 147.742 64.587C147.742 66.127 147.469 67.471 146.923 68.619C146.377 69.753 145.593 70.628 144.571 71.244C143.563 71.86 142.373 72.168 141.001 72.168ZM141.001 70.698C142.569 70.698 143.787 70.173 144.655 69.123C145.537 68.059 145.978 66.547 145.978 64.587C145.978 62.627 145.544 61.122 144.676 60.072C143.808 59.022 142.583 58.497 141.001 58.497C139.433 58.497 138.208 59.029 137.326 60.093C136.458 61.143 136.024 62.641 136.024 64.587C136.024 66.533 136.458 68.038 137.326 69.102C138.208 70.166 139.433 70.698 141.001 70.698ZM163.99 57.09C164.256 57.09 164.459 57.174 164.599 57.342C164.753 57.496 164.83 57.706 164.83 57.972V71.265C164.83 71.517 164.76 71.72 164.62 71.874C164.48 72.028 164.284 72.105 164.032 72.105C163.78 72.105 163.591 72.028 163.465 71.874C163.339 71.72 163.276 71.517 163.276 71.265V60.534L158.719 69.27C158.523 69.676 158.236 69.879 157.858 69.879C157.494 69.879 157.207 69.676 156.997 69.27L152.419 60.639V71.265C152.419 71.517 152.349 71.72 152.209 71.874C152.083 72.028 151.894 72.105 151.642 72.105C151.39 72.105 151.194 72.028 151.054 71.874C150.914 71.72 150.844 71.517 150.844 71.265V57.972C150.844 57.706 150.921 57.496 151.075 57.342C151.229 57.174 151.439 57.09 151.705 57.09C152.055 57.09 152.335 57.293 152.545 57.699L157.879 67.926L163.15 57.699C163.262 57.475 163.381 57.321 163.507 57.237C163.647 57.139 163.808 57.09 163.99 57.09ZM181.248 71.013C181.304 71.125 181.332 71.244 181.332 71.37C181.332 71.58 181.248 71.755 181.08 71.895C180.926 72.035 180.737 72.105 180.513 72.105C180.163 72.105 179.918 71.937 179.778 71.601L178.287 68.199H170.37L168.858 71.601C168.718 71.937 168.473 72.105 168.123 72.105C167.899 72.105 167.703 72.035 167.535 71.895C167.367 71.741 167.283 71.559 167.283 71.349C167.283 71.237 167.311 71.125 167.367 71.013L173.373 57.657C173.457 57.461 173.583 57.314 173.751 57.216C173.919 57.118 174.101 57.069 174.297 57.069C174.507 57.069 174.696 57.125 174.864 57.237C175.032 57.335 175.158 57.475 175.242 57.657L181.248 71.013ZM171 66.771H177.657L174.318 59.232L171 66.771ZM186.467 72.105C186.201 72.105 185.984 72.028 185.816 71.874C185.662 71.706 185.585 71.489 185.585 71.223V58.665H181.07C180.818 58.665 180.622 58.602 180.482 58.476C180.342 58.35 180.272 58.168 180.272 57.93C180.272 57.692 180.342 57.51 180.482 57.384C180.622 57.258 180.818 57.195 181.07 57.195H191.843C192.095 57.195 192.291 57.258 192.431 57.384C192.571 57.51 192.641 57.692 192.641 57.93C192.641 58.168 192.571 58.35 192.431 58.476C192.291 58.602 192.095 58.665 191.843 58.665H187.328V71.223C187.328 71.489 187.251 71.706 187.097 71.874C186.943 72.028 186.733 72.105 186.467 72.105ZM195.427 72.105C195.161 72.105 194.951 72.028 194.797 71.874C194.643 71.706 194.566 71.489 194.566 71.223V57.972C194.566 57.706 194.643 57.496 194.797 57.342C194.951 57.174 195.161 57.09 195.427 57.09C195.693 57.09 195.903 57.174 196.057 57.342C196.211 57.496 196.288 57.706 196.288 57.972V71.223C196.288 71.489 196.211 71.706 196.057 71.874C195.903 72.028 195.693 72.105 195.427 72.105ZM206.134 72.168C204.762 72.168 203.565 71.86 202.543 71.244C201.535 70.628 200.758 69.753 200.212 68.619C199.666 67.485 199.393 66.148 199.393 64.608C199.393 63.054 199.659 61.71 200.191 60.576C200.737 59.428 201.514 58.553 202.522 57.951C203.544 57.335 204.748 57.027 206.134 57.027C207.52 57.027 208.717 57.335 209.725 57.951C210.747 58.553 211.524 59.428 212.056 60.576C212.602 61.71 212.875 63.047 212.875 64.587C212.875 66.127 212.602 67.471 212.056 68.619C211.51 69.753 210.726 70.628 209.704 71.244C208.696 71.86 207.506 72.168 206.134 72.168ZM206.134 70.698C207.702 70.698 208.92 70.173 209.788 69.123C210.67 68.059 211.111 66.547 211.111 64.587C211.111 62.627 210.677 61.122 209.809 60.072C208.941 59.022 207.716 58.497 206.134 58.497C204.566 58.497 203.341 59.029 202.459 60.093C201.591 61.143 201.157 62.641 201.157 64.587C201.157 66.533 201.591 68.038 202.459 69.102C203.341 70.166 204.566 70.698 206.134 70.698ZM227.043 57.09C227.295 57.09 227.491 57.174 227.631 57.342C227.771 57.496 227.841 57.706 227.841 57.972V71.223C227.841 71.489 227.764 71.706 227.61 71.874C227.47 72.028 227.267 72.105 227.001 72.105C226.735 72.105 226.504 71.986 226.308 71.748L217.593 60.093V71.223C217.593 71.489 217.516 71.706 217.362 71.874C217.222 72.028 217.026 72.105 216.774 72.105C216.522 72.105 216.326 72.028 216.186 71.874C216.046 71.706 215.976 71.489 215.976 71.223V57.972C215.976 57.706 216.046 57.496 216.186 57.342C216.34 57.174 216.55 57.09 216.816 57.09C217.096 57.09 217.334 57.209 217.53 57.447L226.224 69.102V57.972C226.224 57.706 226.294 57.496 226.434 57.342C226.588 57.174 226.791 57.09 227.043 57.09Z" fill="#05003D"/>
</svg>
